<?xml version="1.0" encoding="utf-8" standalone="no"?>
<!DOCTYPE svg PUBLIC "-//W3C//DTD SVG 1.1//EN"
  "http://www.w3.org/Graphics/SVG/1.1/DTD/svg11.dtd">
<svg xmlns:xlink="http://www.w3.org/1999/xlink" width="944.39952pt" height="404.39952pt" viewBox="0 0 944.39952 404.39952" xmlns="http://www.w3.org/2000/svg" version="1.1">
 <metadata>
  <rdf:RDF xmlns:dc="http://purl.org/dc/elements/1.1/" xmlns:cc="http://creativecommons.org/ns#" xmlns:rdf="http://www.w3.org/1999/02/22-rdf-syntax-ns#">
   <cc:Work>
    <dc:type rdf:resource="http://purl.org/dc/dcmitype/StillImage"/>
    <dc:date>2026-06-30T20:13:28.371119</dc:date>
    <dc:format>image/svg+xml</dc:format>
    <dc:creator>
     <cc:Agent>
      <dc:title>Matplotlib v3.10.7, https://matplotlib.org/</dc:title>
     </cc:Agent>
    </dc:creator>
   </cc:Work>
  </rdf:RDF>
 </metadata>
 <defs>
  <style type="text/css">*{stroke-linejoin: round; stroke-linecap: butt}</style>
 </defs>
 <g id="figure_1">
  <g id="patch_1">
   <path d="M 0 404.39952 
L 944.39952 404.39952 
L 944.39952 0 
L 0 0 
z
" style="fill: #ffffff"/>
  </g>
  <g id="axes_1">
   <g id="patch_2">
    <path d="M 42.190938 367.811082 
L 460.363354 367.811082 
L 460.363354 44.688449 
L 42.190938 44.688449 
z
" style="fill: #ffffff"/>
   </g>
   <g id="matplotlib.axis_1">
    <g id="xtick_1">
     <g id="line2d_1">
      <path d="M 42.190938 367.811082 
L 42.190938 44.688449 
" clip-path="url(#pb7815b3452)" style="fill: none; stroke: #e4e9ed; stroke-width: 0.8; stroke-linecap: square"/>
     </g>
     <g id="line2d_2">
      <defs>
       <path id="m6eaddc7b77" d="M 0 0 
L 0 3.5 
" style="stroke: #000000; stroke-width: 0.8"/>
      </defs>
      <g>
       <use xlink:href="#m6eaddc7b77" x="42.190938" y="367.811082" style="stroke: #000000; stroke-width: 0.8"/>
      </g>
     </g>
     <g id="text_1">
      <text style="font-size: 9px; font-family: 'DejaVu Sans'; text-anchor: middle" x="42.190938" y="381.649676" transform="rotate(-0 42.190938 381.649676)">0.0</text>
     </g>
    </g>
    <g id="xtick_2">
     <g id="line2d_3">
      <path d="M 125.825421 367.811082 
L 125.825421 44.688449 
" clip-path="url(#pb7815b3452)" style="fill: none; stroke: #e4e9ed; stroke-width: 0.8; stroke-linecap: square"/>
     </g>
     <g id="line2d_4">
      <g>
       <use xlink:href="#m6eaddc7b77" x="125.825421" y="367.811082" style="stroke: #000000; stroke-width: 0.8"/>
      </g>
     </g>
     <g id="text_2">
      <text style="font-size: 9px; font-family: 'DejaVu Sans'; text-anchor: middle" x="125.825421" y="381.649676" transform="rotate(-0 125.825421 381.649676)">0.2</text>
     </g>
    </g>
    <g id="xtick_3">
     <g id="line2d_5">
      <path d="M 209.459904 367.811082 
L 209.459904 44.688449 
" clip-path="url(#pb7815b3452)" style="fill: none; stroke: #e4e9ed; stroke-width: 0.8; stroke-linecap: square"/>
     </g>
     <g id="line2d_6">
      <g>
       <use xlink:href="#m6eaddc7b77" x="209.459904" y="367.811082" style="stroke: #000000; stroke-width: 0.8"/>
      </g>
     </g>
     <g id="text_3">
      <text style="font-size: 9px; font-family: 'DejaVu Sans'; text-anchor: middle" x="209.459904" y="381.649676" transform="rotate(-0 209.459904 381.649676)">0.4</text>
     </g>
    </g>
    <g id="xtick_4">
     <g id="line2d_7">
      <path d="M 293.094387 367.811082 
L 293.094387 44.688449 
" clip-path="url(#pb7815b3452)" style="fill: none; stroke: #e4e9ed; stroke-width: 0.8; stroke-linecap: square"/>
     </g>
     <g id="line2d_8">
      <g>
       <use xlink:href="#m6eaddc7b77" x="293.094387" y="367.811082" style="stroke: #000000; stroke-width: 0.8"/>
      </g>
     </g>
     <g id="text_4">
      <text style="font-size: 9px; font-family: 'DejaVu Sans'; text-anchor: middle" x="293.094387" y="381.649676" transform="rotate(-0 293.094387 381.649676)">0.6</text>
     </g>
    </g>
    <g id="xtick_5">
     <g id="line2d_9">
      <path d="M 376.72887 367.811082 
L 376.72887 44.688449 
" clip-path="url(#pb7815b3452)" style="fill: none; stroke: #e4e9ed; stroke-width: 0.8; stroke-linecap: square"/>
     </g>
     <g id="line2d_10">
      <g>
       <use xlink:href="#m6eaddc7b77" x="376.72887" y="367.811082" style="stroke: #000000; stroke-width: 0.8"/>
      </g>
     </g>
     <g id="text_5">
      <text style="font-size: 9px; font-family: 'DejaVu Sans'; text-anchor: middle" x="376.72887" y="381.649676" transform="rotate(-0 376.72887 381.649676)">0.8</text>
     </g>
    </g>
    <g id="xtick_6">
     <g id="line2d_11">
      <path d="M 460.363354 367.811082 
L 460.363354 44.688449 
" clip-path="url(#pb7815b3452)" style="fill: none; stroke: #e4e9ed; stroke-width: 0.8; stroke-linecap: square"/>
     </g>
     <g id="line2d_12">
      <g>
       <use xlink:href="#m6eaddc7b77" x="460.363354" y="367.811082" style="stroke: #000000; stroke-width: 0.8"/>
      </g>
     </g>
     <g id="text_6">
      <text style="font-size: 9px; font-family: 'DejaVu Sans'; text-anchor: middle" x="460.363354" y="381.649676" transform="rotate(-0 460.363354 381.649676)">1.0</text>
     </g>
    </g>
    <g id="text_7">
     <text style="font-size: 10px; font-family: 'DejaVu Sans'; text-anchor: middle" x="251.277146" y="395.119832" transform="rotate(-0 251.277146 395.119832)">Mean predicted probability</text>
    </g>
   </g>
   <g id="matplotlib.axis_2">
    <g id="ytick_1">
     <g id="line2d_13">
      <path d="M 42.190938 367.811082 
L 460.363354 367.811082 
" clip-path="url(#pb7815b3452)" style="fill: none; stroke: #e4e9ed; stroke-width: 0.8; stroke-linecap: square"/>
     </g>
     <g id="line2d_14">
      <defs>
       <path id="m6058a084bc" d="M 0 0 
L -3.5 0 
" style="stroke: #000000; stroke-width: 0.8"/>
      </defs>
      <g>
       <use xlink:href="#m6058a084bc" x="42.190938" y="367.811082" style="stroke: #000000; stroke-width: 0.8"/>
      </g>
     </g>
     <g id="text_8">
      <text style="font-size: 9px; font-family: 'DejaVu Sans'; text-anchor: end" x="35.190938" y="371.230379" transform="rotate(-0 35.190938 371.230379)">0.0</text>
     </g>
    </g>
    <g id="ytick_2">
     <g id="line2d_15">
      <path d="M 42.190938 303.186556 
L 460.363354 303.186556 
" clip-path="url(#pb7815b3452)" style="fill: none; stroke: #e4e9ed; stroke-width: 0.8; stroke-linecap: square"/>
     </g>
     <g id="line2d_16">
      <g>
       <use xlink:href="#m6058a084bc" x="42.190938" y="303.186556" style="stroke: #000000; stroke-width: 0.8"/>
      </g>
     </g>
     <g id="text_9">
      <text style="font-size: 9px; font-family: 'DejaVu Sans'; text-anchor: end" x="35.190938" y="306.605853" transform="rotate(-0 35.190938 306.605853)">0.2</text>
     </g>
    </g>
    <g id="ytick_3">
     <g id="line2d_17">
      <path d="M 42.190938 238.562029 
L 460.363354 238.562029 
" clip-path="url(#pb7815b3452)" style="fill: none; stroke: #e4e9ed; stroke-width: 0.8; stroke-linecap: square"/>
     </g>
     <g id="line2d_18">
      <g>
       <use xlink:href="#m6058a084bc" x="42.190938" y="238.562029" style="stroke: #000000; stroke-width: 0.8"/>
      </g>
     </g>
     <g id="text_10">
      <text style="font-size: 9px; font-family: 'DejaVu Sans'; text-anchor: end" x="35.190938" y="241.981326" transform="rotate(-0 35.190938 241.981326)">0.4</text>
     </g>
    </g>
    <g id="ytick_4">
     <g id="line2d_19">
      <path d="M 42.190938 173.937502 
L 460.363354 173.937502 
" clip-path="url(#pb7815b3452)" style="fill: none; stroke: #e4e9ed; stroke-width: 0.8; stroke-linecap: square"/>
     </g>
     <g id="line2d_20">
      <g>
       <use xlink:href="#m6058a084bc" x="42.190938" y="173.937502" style="stroke: #000000; stroke-width: 0.8"/>
      </g>
     </g>
     <g id="text_11">
      <text style="font-size: 9px; font-family: 'DejaVu Sans'; text-anchor: end" x="35.190938" y="177.356799" transform="rotate(-0 35.190938 177.356799)">0.6</text>
     </g>
    </g>
    <g id="ytick_5">
     <g id="line2d_21">
      <path d="M 42.190938 109.312975 
L 460.363354 109.312975 
" clip-path="url(#pb7815b3452)" style="fill: none; stroke: #e4e9ed; stroke-width: 0.8; stroke-linecap: square"/>
     </g>
     <g id="line2d_22">
      <g>
       <use xlink:href="#m6058a084bc" x="42.190938" y="109.312975" style="stroke: #000000; stroke-width: 0.8"/>
      </g>
     </g>
     <g id="text_12">
      <text style="font-size: 9px; font-family: 'DejaVu Sans'; text-anchor: end" x="35.190938" y="112.732272" transform="rotate(-0 35.190938 112.732272)">0.8</text>
     </g>
    </g>
    <g id="ytick_6">
     <g id="line2d_23">
      <path d="M 42.190938 44.688449 
L 460.363354 44.688449 
" clip-path="url(#pb7815b3452)" style="fill: none; stroke: #e4e9ed; stroke-width: 0.8; stroke-linecap: square"/>
     </g>
     <g id="line2d_24">
      <g>
       <use xlink:href="#m6058a084bc" x="42.190938" y="44.688449" style="stroke: #000000; stroke-width: 0.8"/>
      </g>
     </g>
     <g id="text_13">
      <text style="font-size: 9px; font-family: 'DejaVu Sans'; text-anchor: end" x="35.190938" y="48.107746" transform="rotate(-0 35.190938 48.107746)">1.0</text>
     </g>
    </g>
    <g id="text_14">
     <text style="font-size: 10px; font-family: 'DejaVu Sans'; text-anchor: middle" x="14.798438" y="206.249766" transform="rotate(-90 14.798438 206.249766)">Observed frequency</text>
    </g>
   </g>
   <g id="line2d_25">
    <path d="M 43.982033 367.515183 
L 101.527745 350.804628 
L 144.648591 367.811082 
L 191.138149 319.342687 
L 231.328397 340.884196 
L 273.997579 265.772356 
L 314.403903 195.479011 
L 358.735766 192.786323 
L 397.505204 122.683567 
L 454.125798 58.943859 
" clip-path="url(#pb7815b3452)" style="fill: none; stroke: #183b56; stroke-width: 1.4; stroke-linecap: square"/>
    <defs>
     <path id="m25f38674df" d="M 0 1.75 
C 0.464105 1.75 0.909265 1.565609 1.237437 1.237437 
C 1.565609 0.909265 1.75 0.464105 1.75 0 
C 1.75 -0.464105 1.565609 -0.909265 1.237437 -1.237437 
C 0.909265 -1.565609 0.464105 -1.75 0 -1.75 
C -0.464105 -1.75 -0.909265 -1.565609 -1.237437 -1.237437 
C -1.565609 -0.909265 -1.75 -0.464105 -1.75 0 
C -1.75 0.464105 -1.565609 0.909265 -1.237437 1.237437 
C -0.909265 1.565609 -0.464105 1.75 0 1.75 
z
" style="stroke: #183b56"/>
    </defs>
    <g clip-path="url(#pb7815b3452)">
     <use xlink:href="#m25f38674df" x="43.982033" y="367.515183" style="fill: #183b56; stroke: #183b56"/>
     <use xlink:href="#m25f38674df" x="101.527745" y="350.804628" style="fill: #183b56; stroke: #183b56"/>
     <use xlink:href="#m25f38674df" x="144.648591" y="367.811082" style="fill: #183b56; stroke: #183b56"/>
     <use xlink:href="#m25f38674df" x="191.138149" y="319.342687" style="fill: #183b56; stroke: #183b56"/>
     <use xlink:href="#m25f38674df" x="231.328397" y="340.884196" style="fill: #183b56; stroke: #183b56"/>
     <use xlink:href="#m25f38674df" x="273.997579" y="265.772356" style="fill: #183b56; stroke: #183b56"/>
     <use xlink:href="#m25f38674df" x="314.403903" y="195.479011" style="fill: #183b56; stroke: #183b56"/>
     <use xlink:href="#m25f38674df" x="358.735766" y="192.786323" style="fill: #183b56; stroke: #183b56"/>
     <use xlink:href="#m25f38674df" x="397.505204" y="122.683567" style="fill: #183b56; stroke: #183b56"/>
     <use xlink:href="#m25f38674df" x="454.125798" y="58.943859" style="fill: #183b56; stroke: #183b56"/>
    </g>
   </g>
   <g id="line2d_26">
    <path d="M 44.241022 367.811082 
L 104.80277 367.811082 
L 146.73824 325.664652 
L 187.962357 296.006053 
L 232.927726 298.570518 
L 273.215978 201.03811 
L 313.756966 159.344867 
L 359.93081 74.063234 
L 401.858401 59.89422 
L 444.629984 45.707763 
" clip-path="url(#pb7815b3452)" style="fill: none; stroke: #138a8a; stroke-width: 1.4; stroke-linecap: square"/>
    <defs>
     <path id="m2c2218f9d8" d="M 0 1.75 
C 0.464105 1.75 0.909265 1.565609 1.237437 1.237437 
C 1.565609 0.909265 1.75 0.464105 1.75 0 
C 1.75 -0.464105 1.565609 -0.909265 1.237437 -1.237437 
C 0.909265 -1.565609 0.464105 -1.75 0 -1.75 
C -0.464105 -1.75 -0.909265 -1.565609 -1.237437 -1.237437 
C -1.565609 -0.909265 -1.75 -0.464105 -1.75 0 
C -1.75 0.464105 -1.565609 0.909265 -1.237437 1.237437 
C -0.909265 1.565609 -0.464105 1.75 0 1.75 
z
" style="stroke: #138a8a"/>
    </defs>
    <g clip-path="url(#pb7815b3452)">
     <use xlink:href="#m2c2218f9d8" x="44.241022" y="367.811082" style="fill: #138a8a; stroke: #138a8a"/>
     <use xlink:href="#m2c2218f9d8" x="104.80277" y="367.811082" style="fill: #138a8a; stroke: #138a8a"/>
     <use xlink:href="#m2c2218f9d8" x="146.73824" y="325.664652" style="fill: #138a8a; stroke: #138a8a"/>
     <use xlink:href="#m2c2218f9d8" x="187.962357" y="296.006053" style="fill: #138a8a; stroke: #138a8a"/>
     <use xlink:href="#m2c2218f9d8" x="232.927726" y="298.570518" style="fill: #138a8a; stroke: #138a8a"/>
     <use xlink:href="#m2c2218f9d8" x="273.215978" y="201.03811" style="fill: #138a8a; stroke: #138a8a"/>
     <use xlink:href="#m2c2218f9d8" x="313.756966" y="159.344867" style="fill: #138a8a; stroke: #138a8a"/>
     <use xlink:href="#m2c2218f9d8" x="359.93081" y="74.063234" style="fill: #138a8a; stroke: #138a8a"/>
     <use xlink:href="#m2c2218f9d8" x="401.858401" y="59.89422" style="fill: #138a8a; stroke: #138a8a"/>
     <use xlink:href="#m2c2218f9d8" x="444.629984" y="45.707763" style="fill: #138a8a; stroke: #138a8a"/>
    </g>
   </g>
   <g id="line2d_27">
    <path d="M 45.276808 365.253384 
L 103.506399 348.028064 
L 147.32034 336.286923 
L 184.055617 274.001286 
L 228.360014 290.877122 
L 272.878907 186.054601 
L 314.889264 246.640095 
L 354.632214 171.12774 
L 397.600186 96.805003 
L 453.178215 45.85076 
" clip-path="url(#pb7815b3452)" style="fill: none; stroke: #d1493f; stroke-width: 1.4; stroke-linecap: square"/>
    <defs>
     <path id="m21b1f5c5e3" d="M 0 1.75 
C 0.464105 1.75 0.909265 1.565609 1.237437 1.237437 
C 1.565609 0.909265 1.75 0.464105 1.75 0 
C 1.75 -0.464105 1.565609 -0.909265 1.237437 -1.237437 
C 0.909265 -1.565609 0.464105 -1.75 0 -1.75 
C -0.464105 -1.75 -0.909265 -1.565609 -1.237437 -1.237437 
C -1.565609 -0.909265 -1.75 -0.464105 -1.75 0 
C -1.75 0.464105 -1.565609 0.909265 -1.237437 1.237437 
C -0.909265 1.565609 -0.464105 1.75 0 1.75 
z
" style="stroke: #d1493f"/>
    </defs>
    <g clip-path="url(#pb7815b3452)">
     <use xlink:href="#m21b1f5c5e3" x="45.276808" y="365.253384" style="fill: #d1493f; stroke: #d1493f"/>
     <use xlink:href="#m21b1f5c5e3" x="103.506399" y="348.028064" style="fill: #d1493f; stroke: #d1493f"/>
     <use xlink:href="#m21b1f5c5e3" x="147.32034" y="336.286923" style="fill: #d1493f; stroke: #d1493f"/>
     <use xlink:href="#m21b1f5c5e3" x="184.055617" y="274.001286" style="fill: #d1493f; stroke: #d1493f"/>
     <use xlink:href="#m21b1f5c5e3" x="228.360014" y="290.877122" style="fill: #d1493f; stroke: #d1493f"/>
     <use xlink:href="#m21b1f5c5e3" x="272.878907" y="186.054601" style="fill: #d1493f; stroke: #d1493f"/>
     <use xlink:href="#m21b1f5c5e3" x="314.889264" y="246.640095" style="fill: #d1493f; stroke: #d1493f"/>
     <use xlink:href="#m21b1f5c5e3" x="354.632214" y="171.12774" style="fill: #d1493f; stroke: #d1493f"/>
     <use xlink:href="#m21b1f5c5e3" x="397.600186" y="96.805003" style="fill: #d1493f; stroke: #d1493f"/>
     <use xlink:href="#m21b1f5c5e3" x="453.178215" y="45.85076" style="fill: #d1493f; stroke: #d1493f"/>
    </g>
   </g>
   <g id="line2d_28">
    <path d="M 46.314806 367.312436 
L 99.488084 367.811082 
L 144.769007 352.782123 
L 186.633236 351.654951 
L 227.537734 313.95731 
L 273.008213 283.518222 
L 317.495964 226.44493 
L 355.907402 152.395993 
L 405.276835 138.93255 
L 444.262308 83.270256 
" clip-path="url(#pb7815b3452)" style="fill: none; stroke: #d9a441; stroke-width: 1.4; stroke-linecap: square"/>
    <defs>
     <path id="m910ecb4447" d="M 0 1.75 
C 0.464105 1.75 0.909265 1.565609 1.237437 1.237437 
C 1.565609 0.909265 1.75 0.464105 1.75 0 
C 1.75 -0.464105 1.565609 -0.909265 1.237437 -1.237437 
C 0.909265 -1.565609 0.464105 -1.75 0 -1.75 
C -0.464105 -1.75 -0.909265 -1.565609 -1.237437 -1.237437 
C -1.565609 -0.909265 -1.75 -0.464105 -1.75 0 
C -1.75 0.464105 -1.565609 0.909265 -1.237437 1.237437 
C -0.909265 1.565609 -0.464105 1.75 0 1.75 
z
" style="stroke: #d9a441"/>
    </defs>
    <g clip-path="url(#pb7815b3452)">
     <use xlink:href="#m910ecb4447" x="46.314806" y="367.312436" style="fill: #d9a441; stroke: #d9a441"/>
     <use xlink:href="#m910ecb4447" x="99.488084" y="367.811082" style="fill: #d9a441; stroke: #d9a441"/>
     <use xlink:href="#m910ecb4447" x="144.769007" y="352.782123" style="fill: #d9a441; stroke: #d9a441"/>
     <use xlink:href="#m910ecb4447" x="186.633236" y="351.654951" style="fill: #d9a441; stroke: #d9a441"/>
     <use xlink:href="#m910ecb4447" x="227.537734" y="313.95731" style="fill: #d9a441; stroke: #d9a441"/>
     <use xlink:href="#m910ecb4447" x="273.008213" y="283.518222" style="fill: #d9a441; stroke: #d9a441"/>
     <use xlink:href="#m910ecb4447" x="317.495964" y="226.44493" style="fill: #d9a441; stroke: #d9a441"/>
     <use xlink:href="#m910ecb4447" x="355.907402" y="152.395993" style="fill: #d9a441; stroke: #d9a441"/>
     <use xlink:href="#m910ecb4447" x="405.276835" y="138.93255" style="fill: #d9a441; stroke: #d9a441"/>
     <use xlink:href="#m910ecb4447" x="444.262308" y="83.270256" style="fill: #d9a441; stroke: #d9a441"/>
    </g>
   </g>
   <g id="line2d_29">
    <path d="M 49.754406 364.733724 
L 104.768017 361.675843 
L 146.370353 364.819206 
L 188.599449 334.548458 
L 229.92439 341.961272 
L 267.916086 329.036366 
L 311.040185 287.030424 
L 351.315689 206.249766 
L 401.410384 120.717304 
L 446.819647 85.078778 
" clip-path="url(#pb7815b3452)" style="fill: none; stroke: #3e7cb1; stroke-width: 1.4; stroke-linecap: square"/>
    <defs>
     <path id="m8e8b4b50da" d="M 0 1.75 
C 0.464105 1.75 0.909265 1.565609 1.237437 1.237437 
C 1.565609 0.909265 1.75 0.464105 1.75 0 
C 1.75 -0.464105 1.565609 -0.909265 1.237437 -1.237437 
C 0.909265 -1.565609 0.464105 -1.75 0 -1.75 
C -0.464105 -1.75 -0.909265 -1.565609 -1.237437 -1.237437 
C -1.565609 -0.909265 -1.75 -0.464105 -1.75 0 
C -1.75 0.464105 -1.565609 0.909265 -1.237437 1.237437 
C -0.909265 1.565609 -0.464105 1.75 0 1.75 
z
" style="stroke: #3e7cb1"/>
    </defs>
    <g clip-path="url(#pb7815b3452)">
     <use xlink:href="#m8e8b4b50da" x="49.754406" y="364.733724" style="fill: #3e7cb1; stroke: #3e7cb1"/>
     <use xlink:href="#m8e8b4b50da" x="104.768017" y="361.675843" style="fill: #3e7cb1; stroke: #3e7cb1"/>
     <use xlink:href="#m8e8b4b50da" x="146.370353" y="364.819206" style="fill: #3e7cb1; stroke: #3e7cb1"/>
     <use xlink:href="#m8e8b4b50da" x="188.599449" y="334.548458" style="fill: #3e7cb1; stroke: #3e7cb1"/>
     <use xlink:href="#m8e8b4b50da" x="229.92439" y="341.961272" style="fill: #3e7cb1; stroke: #3e7cb1"/>
     <use xlink:href="#m8e8b4b50da" x="267.916086" y="329.036366" style="fill: #3e7cb1; stroke: #3e7cb1"/>
     <use xlink:href="#m8e8b4b50da" x="311.040185" y="287.030424" style="fill: #3e7cb1; stroke: #3e7cb1"/>
     <use xlink:href="#m8e8b4b50da" x="351.315689" y="206.249766" style="fill: #3e7cb1; stroke: #3e7cb1"/>
     <use xlink:href="#m8e8b4b50da" x="401.410384" y="120.717304" style="fill: #3e7cb1; stroke: #3e7cb1"/>
     <use xlink:href="#m8e8b4b50da" x="446.819647" y="85.078778" style="fill: #3e7cb1; stroke: #3e7cb1"/>
    </g>
   </g>
   <g id="line2d_30">
    <path d="M 48.022922 363.932641 
L 103.588489 355.617776 
L 145.976247 326.779637 
L 188.638735 349.859825 
L 232.20532 279.686728 
L 270.773019 260.103538 
L 306.537481 246.640095 
L 361.193883 85.078778 
L 401.43912 156.538591 
L 444.089039 67.768637 
" clip-path="url(#pb7815b3452)" style="fill: none; stroke: #3a8d5d; stroke-width: 1.4; stroke-linecap: square"/>
    <defs>
     <path id="m1a4a9eed63" d="M 0 1.75 
C 0.464105 1.75 0.909265 1.565609 1.237437 1.237437 
C 1.565609 0.909265 1.75 0.464105 1.75 0 
C 1.75 -0.464105 1.565609 -0.909265 1.237437 -1.237437 
C 0.909265 -1.565609 0.464105 -1.75 0 -1.75 
C -0.464105 -1.75 -0.909265 -1.565609 -1.237437 -1.237437 
C -1.565609 -0.909265 -1.75 -0.464105 -1.75 0 
C -1.75 0.464105 -1.565609 0.909265 -1.237437 1.237437 
C -0.909265 1.565609 -0.464105 1.75 0 1.75 
z
" style="stroke: #3a8d5d"/>
    </defs>
    <g clip-path="url(#pb7815b3452)">
     <use xlink:href="#m1a4a9eed63" x="48.022922" y="363.932641" style="fill: #3a8d5d; stroke: #3a8d5d"/>
     <use xlink:href="#m1a4a9eed63" x="103.588489" y="355.617776" style="fill: #3a8d5d; stroke: #3a8d5d"/>
     <use xlink:href="#m1a4a9eed63" x="145.976247" y="326.779637" style="fill: #3a8d5d; stroke: #3a8d5d"/>
     <use xlink:href="#m1a4a9eed63" x="188.638735" y="349.859825" style="fill: #3a8d5d; stroke: #3a8d5d"/>
     <use xlink:href="#m1a4a9eed63" x="232.20532" y="279.686728" style="fill: #3a8d5d; stroke: #3a8d5d"/>
     <use xlink:href="#m1a4a9eed63" x="270.773019" y="260.103538" style="fill: #3a8d5d; stroke: #3a8d5d"/>
     <use xlink:href="#m1a4a9eed63" x="306.537481" y="246.640095" style="fill: #3a8d5d; stroke: #3a8d5d"/>
     <use xlink:href="#m1a4a9eed63" x="361.193883" y="85.078778" style="fill: #3a8d5d; stroke: #3a8d5d"/>
     <use xlink:href="#m1a4a9eed63" x="401.43912" y="156.538591" style="fill: #3a8d5d; stroke: #3a8d5d"/>
     <use xlink:href="#m1a4a9eed63" x="444.089039" y="67.768637" style="fill: #3a8d5d; stroke: #3a8d5d"/>
    </g>
   </g>
   <g id="line2d_31">
    <path d="M 42.190938 367.811082 
L 460.363354 44.688449 
" clip-path="url(#pb7815b3452)" style="fill: none; stroke-dasharray: 4.44,1.92; stroke-dashoffset: 0; stroke: #aab4bd; stroke-width: 1.2"/>
   </g>
   <g id="patch_3">
    <path d="M 42.190938 367.811082 
L 42.190938 44.688449 
" style="fill: none; stroke: #aab4bd; stroke-width: 0.8; stroke-linejoin: miter; stroke-linecap: square"/>
   </g>
   <g id="patch_4">
    <path d="M 460.363354 367.811082 
L 460.363354 44.688449 
" style="fill: none; stroke: #aab4bd; stroke-width: 0.8; stroke-linejoin: miter; stroke-linecap: square"/>
   </g>
   <g id="patch_5">
    <path d="M 42.190938 367.811082 
L 460.363354 367.811082 
" style="fill: none; stroke: #aab4bd; stroke-width: 0.8; stroke-linejoin: miter; stroke-linecap: square"/>
   </g>
   <g id="patch_6">
    <path d="M 42.190938 44.688449 
L 460.363354 44.688449 
" style="fill: none; stroke: #aab4bd; stroke-width: 0.8; stroke-linejoin: miter; stroke-linecap: square"/>
   </g>
   <g id="text_15">
    <text style="font-weight: 700; font-size: 13px; font-family: 'DejaVu Sans'; text-anchor: middle" x="251.277146" y="38.688449" transform="rotate(-0 251.277146 38.688449)">Primary6 rhythm</text>
   </g>
   <g id="legend_1">
    <g id="line2d_32">
     <path d="M 49.390938 55.167199 
L 57.390938 55.167199 
L 65.390938 55.167199 
" style="fill: none; stroke: #183b56; stroke-width: 1.4; stroke-linecap: square"/>
     <g>
      <use xlink:href="#m25f38674df" x="57.390938" y="55.167199" style="fill: #183b56; stroke: #183b56"/>
     </g>
    </g>
    <g id="text_16">
     <text style="font-size: 8px; font-family: 'DejaVu Sans'; text-anchor: start" x="71.790938" y="57.967199" transform="rotate(-0 71.790938 57.967199)">AFIB</text>
    </g>
    <g id="line2d_33">
     <path d="M 49.390938 66.909699 
L 57.390938 66.909699 
L 65.390938 66.909699 
" style="fill: none; stroke: #138a8a; stroke-width: 1.4; stroke-linecap: square"/>
     <g>
      <use xlink:href="#m2c2218f9d8" x="57.390938" y="66.909699" style="fill: #138a8a; stroke: #138a8a"/>
     </g>
    </g>
    <g id="text_17">
     <text style="font-size: 8px; font-family: 'DejaVu Sans'; text-anchor: start" x="71.790938" y="69.709699" transform="rotate(-0 71.790938 69.709699)">SB</text>
    </g>
    <g id="line2d_34">
     <path d="M 49.390938 78.652199 
L 57.390938 78.652199 
L 65.390938 78.652199 
" style="fill: none; stroke: #d1493f; stroke-width: 1.4; stroke-linecap: square"/>
     <g>
      <use xlink:href="#m21b1f5c5e3" x="57.390938" y="78.652199" style="fill: #d1493f; stroke: #d1493f"/>
     </g>
    </g>
    <g id="text_18">
     <text style="font-size: 8px; font-family: 'DejaVu Sans'; text-anchor: start" x="71.790938" y="81.452199" transform="rotate(-0 71.790938 81.452199)">STACH</text>
    </g>
    <g id="line2d_35">
     <path d="M 49.390938 90.394699 
L 57.390938 90.394699 
L 65.390938 90.394699 
" style="fill: none; stroke: #d9a441; stroke-width: 1.4; stroke-linecap: square"/>
     <g>
      <use xlink:href="#m910ecb4447" x="57.390938" y="90.394699" style="fill: #d9a441; stroke: #d9a441"/>
     </g>
    </g>
    <g id="text_19">
     <text style="font-size: 8px; font-family: 'DejaVu Sans'; text-anchor: start" x="71.790938" y="93.194699" transform="rotate(-0 71.790938 93.194699)">RBBB</text>
    </g>
    <g id="line2d_36">
     <path d="M 114.070938 55.167199 
L 122.070938 55.167199 
L 130.070938 55.167199 
" style="fill: none; stroke: #3e7cb1; stroke-width: 1.4; stroke-linecap: square"/>
     <g>
      <use xlink:href="#m8e8b4b50da" x="122.070938" y="55.167199" style="fill: #3e7cb1; stroke: #3e7cb1"/>
     </g>
    </g>
    <g id="text_20">
     <text style="font-size: 8px; font-family: 'DejaVu Sans'; text-anchor: start" x="136.470938" y="57.967199" transform="rotate(-0 136.470938 57.967199)">1AVB</text>
    </g>
    <g id="line2d_37">
     <path d="M 114.070938 66.909699 
L 122.070938 66.909699 
L 130.070938 66.909699 
" style="fill: none; stroke: #3a8d5d; stroke-width: 1.4; stroke-linecap: square"/>
     <g>
      <use xlink:href="#m1a4a9eed63" x="122.070938" y="66.909699" style="fill: #3a8d5d; stroke: #3a8d5d"/>
     </g>
    </g>
    <g id="text_21">
     <text style="font-size: 8px; font-family: 'DejaVu Sans'; text-anchor: start" x="136.470938" y="69.709699" transform="rotate(-0 136.470938 69.709699)">PVC</text>
    </g>
    <g id="line2d_38">
     <path d="M 114.070938 78.652199 
L 122.070938 78.652199 
L 130.070938 78.652199 
" style="fill: none; stroke-dasharray: 4.44,1.92; stroke-dashoffset: 0; stroke: #aab4bd; stroke-width: 1.2"/>
    </g>
    <g id="text_22">
     <text style="font-size: 8px; font-family: 'DejaVu Sans'; text-anchor: start" x="136.470938" y="81.452199" transform="rotate(-0 136.470938 81.452199)">Ideal</text>
    </g>
   </g>
  </g>
  <g id="axes_2">
   <g id="patch_7">
    <path d="M 511.870697 367.811082 
L 930.043114 367.811082 
L 930.043114 44.688449 
L 511.870697 44.688449 
z
" style="fill: #ffffff"/>
   </g>
   <g id="matplotlib.axis_3">
    <g id="xtick_7">
     <g id="line2d_39">
      <path d="M 511.870697 367.811082 
L 511.870697 44.688449 
" clip-path="url(#p7380948ab7)" style="fill: none; stroke: #e4e9ed; stroke-width: 0.8; stroke-linecap: square"/>
     </g>
     <g id="line2d_40">
      <g>
       <use xlink:href="#m6eaddc7b77" x="511.870697" y="367.811082" style="stroke: #000000; stroke-width: 0.8"/>
      </g>
     </g>
     <g id="text_23">
      <text style="font-size: 9px; font-family: 'DejaVu Sans'; text-anchor: middle" x="511.870697" y="381.649676" transform="rotate(-0 511.870697 381.649676)">0.0</text>
     </g>
    </g>
    <g id="xtick_8">
     <g id="line2d_41">
      <path d="M 595.505181 367.811082 
L 595.505181 44.688449 
" clip-path="url(#p7380948ab7)" style="fill: none; stroke: #e4e9ed; stroke-width: 0.8; stroke-linecap: square"/>
     </g>
     <g id="line2d_42">
      <g>
       <use xlink:href="#m6eaddc7b77" x="595.505181" y="367.811082" style="stroke: #000000; stroke-width: 0.8"/>
      </g>
     </g>
     <g id="text_24">
      <text style="font-size: 9px; font-family: 'DejaVu Sans'; text-anchor: middle" x="595.505181" y="381.649676" transform="rotate(-0 595.505181 381.649676)">0.2</text>
     </g>
    </g>
    <g id="xtick_9">
     <g id="line2d_43">
      <path d="M 679.139664 367.811082 
L 679.139664 44.688449 
" clip-path="url(#p7380948ab7)" style="fill: none; stroke: #e4e9ed; stroke-width: 0.8; stroke-linecap: square"/>
     </g>
     <g id="line2d_44">
      <g>
       <use xlink:href="#m6eaddc7b77" x="679.139664" y="367.811082" style="stroke: #000000; stroke-width: 0.8"/>
      </g>
     </g>
     <g id="text_25">
      <text style="font-size: 9px; font-family: 'DejaVu Sans'; text-anchor: middle" x="679.139664" y="381.649676" transform="rotate(-0 679.139664 381.649676)">0.4</text>
     </g>
    </g>
    <g id="xtick_10">
     <g id="line2d_45">
      <path d="M 762.774147 367.811082 
L 762.774147 44.688449 
" clip-path="url(#p7380948ab7)" style="fill: none; stroke: #e4e9ed; stroke-width: 0.8; stroke-linecap: square"/>
     </g>
     <g id="line2d_46">
      <g>
       <use xlink:href="#m6eaddc7b77" x="762.774147" y="367.811082" style="stroke: #000000; stroke-width: 0.8"/>
      </g>
     </g>
     <g id="text_26">
      <text style="font-size: 9px; font-family: 'DejaVu Sans'; text-anchor: middle" x="762.774147" y="381.649676" transform="rotate(-0 762.774147 381.649676)">0.6</text>
     </g>
    </g>
    <g id="xtick_11">
     <g id="line2d_47">
      <path d="M 846.40863 367.811082 
L 846.40863 44.688449 
" clip-path="url(#p7380948ab7)" style="fill: none; stroke: #e4e9ed; stroke-width: 0.8; stroke-linecap: square"/>
     </g>
     <g id="line2d_48">
      <g>
       <use xlink:href="#m6eaddc7b77" x="846.40863" y="367.811082" style="stroke: #000000; stroke-width: 0.8"/>
      </g>
     </g>
     <g id="text_27">
      <text style="font-size: 9px; font-family: 'DejaVu Sans'; text-anchor: middle" x="846.40863" y="381.649676" transform="rotate(-0 846.40863 381.649676)">0.8</text>
     </g>
    </g>
    <g id="xtick_12">
     <g id="line2d_49">
      <path d="M 930.043114 367.811082 
L 930.043114 44.688449 
" clip-path="url(#p7380948ab7)" style="fill: none; stroke: #e4e9ed; stroke-width: 0.8; stroke-linecap: square"/>
     </g>
     <g id="line2d_50">
      <g>
       <use xlink:href="#m6eaddc7b77" x="930.043114" y="367.811082" style="stroke: #000000; stroke-width: 0.8"/>
      </g>
     </g>
     <g id="text_28">
      <text style="font-size: 9px; font-family: 'DejaVu Sans'; text-anchor: middle" x="930.043114" y="381.649676" transform="rotate(-0 930.043114 381.649676)">1.0</text>
     </g>
    </g>
    <g id="text_29">
     <text style="font-size: 10px; font-family: 'DejaVu Sans'; text-anchor: middle" x="720.956906" y="395.119832" transform="rotate(-0 720.956906 395.119832)">Mean predicted probability</text>
    </g>
   </g>
   <g id="matplotlib.axis_4">
    <g id="ytick_7">
     <g id="line2d_51">
      <path d="M 511.870697 367.811082 
L 930.043114 367.811082 
" clip-path="url(#p7380948ab7)" style="fill: none; stroke: #e4e9ed; stroke-width: 0.8; stroke-linecap: square"/>
     </g>
     <g id="line2d_52">
      <g>
       <use xlink:href="#m6058a084bc" x="511.870697" y="367.811082" style="stroke: #000000; stroke-width: 0.8"/>
      </g>
     </g>
     <g id="text_30">
      <text style="font-size: 9px; font-family: 'DejaVu Sans'; text-anchor: end" x="504.870697" y="371.230379" transform="rotate(-0 504.870697 371.230379)">0.0</text>
     </g>
    </g>
    <g id="ytick_8">
     <g id="line2d_53">
      <path d="M 511.870697 303.186556 
L 930.043114 303.186556 
" clip-path="url(#p7380948ab7)" style="fill: none; stroke: #e4e9ed; stroke-width: 0.8; stroke-linecap: square"/>
     </g>
     <g id="line2d_54">
      <g>
       <use xlink:href="#m6058a084bc" x="511.870697" y="303.186556" style="stroke: #000000; stroke-width: 0.8"/>
      </g>
     </g>
     <g id="text_31">
      <text style="font-size: 9px; font-family: 'DejaVu Sans'; text-anchor: end" x="504.870697" y="306.605853" transform="rotate(-0 504.870697 306.605853)">0.2</text>
     </g>
    </g>
    <g id="ytick_9">
     <g id="line2d_55">
      <path d="M 511.870697 238.562029 
L 930.043114 238.562029 
" clip-path="url(#p7380948ab7)" style="fill: none; stroke: #e4e9ed; stroke-width: 0.8; stroke-linecap: square"/>
     </g>
     <g id="line2d_56">
      <g>
       <use xlink:href="#m6058a084bc" x="511.870697" y="238.562029" style="stroke: #000000; stroke-width: 0.8"/>
      </g>
     </g>
     <g id="text_32">
      <text style="font-size: 9px; font-family: 'DejaVu Sans'; text-anchor: end" x="504.870697" y="241.981326" transform="rotate(-0 504.870697 241.981326)">0.4</text>
     </g>
    </g>
    <g id="ytick_10">
     <g id="line2d_57">
      <path d="M 511.870697 173.937502 
L 930.043114 173.937502 
" clip-path="url(#p7380948ab7)" style="fill: none; stroke: #e4e9ed; stroke-width: 0.8; stroke-linecap: square"/>
     </g>
     <g id="line2d_58">
      <g>
       <use xlink:href="#m6058a084bc" x="511.870697" y="173.937502" style="stroke: #000000; stroke-width: 0.8"/>
      </g>
     </g>
     <g id="text_33">
      <text style="font-size: 9px; font-family: 'DejaVu Sans'; text-anchor: end" x="504.870697" y="177.356799" transform="rotate(-0 504.870697 177.356799)">0.6</text>
     </g>
    </g>
    <g id="ytick_11">
     <g id="line2d_59">
      <path d="M 511.870697 109.312975 
L 930.043114 109.312975 
" clip-path="url(#p7380948ab7)" style="fill: none; stroke: #e4e9ed; stroke-width: 0.8; stroke-linecap: square"/>
     </g>
     <g id="line2d_60">
      <g>
       <use xlink:href="#m6058a084bc" x="511.870697" y="109.312975" style="stroke: #000000; stroke-width: 0.8"/>
      </g>
     </g>
     <g id="text_34">
      <text style="font-size: 9px; font-family: 'DejaVu Sans'; text-anchor: end" x="504.870697" y="112.732272" transform="rotate(-0 504.870697 112.732272)">0.8</text>
     </g>
    </g>
    <g id="ytick_12">
     <g id="line2d_61">
      <path d="M 511.870697 44.688449 
L 930.043114 44.688449 
" clip-path="url(#p7380948ab7)" style="fill: none; stroke: #e4e9ed; stroke-width: 0.8; stroke-linecap: square"/>
     </g>
     <g id="line2d_62">
      <g>
       <use xlink:href="#m6058a084bc" x="511.870697" y="44.688449" style="stroke: #000000; stroke-width: 0.8"/>
      </g>
     </g>
     <g id="text_35">
      <text style="font-size: 9px; font-family: 'DejaVu Sans'; text-anchor: end" x="504.870697" y="48.107746" transform="rotate(-0 504.870697 48.107746)">1.0</text>
     </g>
    </g>
    <g id="text_36">
     <text style="font-size: 10px; font-family: 'DejaVu Sans'; text-anchor: middle" x="484.478197" y="206.249766" transform="rotate(-90 484.478197 206.249766)">Observed frequency</text>
    </g>
   </g>
   <g id="line2d_63">
    <path d="M 543.216093 367.811082 
L 576.254372 367.811082 
L 616.289946 342.955495 
L 656.516768 329.036366 
L 699.257174 329.796655 
L 737.940348 260.103538 
L 781.702876 183.169577 
L 826.050862 94.399623 
L 868.573699 44.688449 
L 914.083758 44.688449 
" clip-path="url(#p7380948ab7)" style="fill: none; stroke: #183b56; stroke-width: 1.4; stroke-linecap: square"/>
    <g clip-path="url(#p7380948ab7)">
     <use xlink:href="#m25f38674df" x="543.216093" y="367.811082" style="fill: #183b56; stroke: #183b56"/>
     <use xlink:href="#m25f38674df" x="576.254372" y="367.811082" style="fill: #183b56; stroke: #183b56"/>
     <use xlink:href="#m25f38674df" x="616.289946" y="342.955495" style="fill: #183b56; stroke: #183b56"/>
     <use xlink:href="#m25f38674df" x="656.516768" y="329.036366" style="fill: #183b56; stroke: #183b56"/>
     <use xlink:href="#m25f38674df" x="699.257174" y="329.796655" style="fill: #183b56; stroke: #183b56"/>
     <use xlink:href="#m25f38674df" x="737.940348" y="260.103538" style="fill: #183b56; stroke: #183b56"/>
     <use xlink:href="#m25f38674df" x="781.702876" y="183.169577" style="fill: #183b56; stroke: #183b56"/>
     <use xlink:href="#m25f38674df" x="826.050862" y="94.399623" style="fill: #183b56; stroke: #183b56"/>
     <use xlink:href="#m25f38674df" x="868.573699" y="44.688449" style="fill: #183b56; stroke: #183b56"/>
     <use xlink:href="#m25f38674df" x="914.083758" y="44.688449" style="fill: #183b56; stroke: #183b56"/>
    </g>
   </g>
   <g id="line2d_64">
    <path d="M 535.050103 303.186556 
L 567.654075 367.811082 
L 622.610114 313.95731 
L 658.560412 313.95731 
L 699.788753 272.775014 
L 745.403741 218.677559 
L 788.176492 215.225394 
L 824.370289 206.249766 
L 868.040414 125.469107 
L 904.875543 90.848825 
" clip-path="url(#p7380948ab7)" style="fill: none; stroke: #138a8a; stroke-width: 1.4; stroke-linecap: square"/>
    <g clip-path="url(#p7380948ab7)">
     <use xlink:href="#m2c2218f9d8" x="535.050103" y="303.186556" style="fill: #138a8a; stroke: #138a8a"/>
     <use xlink:href="#m2c2218f9d8" x="567.654075" y="367.811082" style="fill: #138a8a; stroke: #138a8a"/>
     <use xlink:href="#m2c2218f9d8" x="622.610114" y="313.95731" style="fill: #138a8a; stroke: #138a8a"/>
     <use xlink:href="#m2c2218f9d8" x="658.560412" y="313.95731" style="fill: #138a8a; stroke: #138a8a"/>
     <use xlink:href="#m2c2218f9d8" x="699.788753" y="272.775014" style="fill: #138a8a; stroke: #138a8a"/>
     <use xlink:href="#m2c2218f9d8" x="745.403741" y="218.677559" style="fill: #138a8a; stroke: #138a8a"/>
     <use xlink:href="#m2c2218f9d8" x="788.176492" y="215.225394" style="fill: #138a8a; stroke: #138a8a"/>
     <use xlink:href="#m2c2218f9d8" x="824.370289" y="206.249766" style="fill: #138a8a; stroke: #138a8a"/>
     <use xlink:href="#m2c2218f9d8" x="868.040414" y="125.469107" style="fill: #138a8a; stroke: #138a8a"/>
     <use xlink:href="#m2c2218f9d8" x="904.875543" y="90.848825" style="fill: #138a8a; stroke: #138a8a"/>
    </g>
   </g>
   <g id="line2d_65">
    <path d="M 541.887152 367.811082 
L 573.319818 367.811082 
L 615.364173 352.42429 
L 664.211995 324.728065 
L 698.318608 275.49033 
L 744.55835 213.943162 
L 785.220934 162.187588 
L 826.579926 190.614799 
L 868.211699 132.812803 
L 910.987966 74.746368 
" clip-path="url(#p7380948ab7)" style="fill: none; stroke: #d1493f; stroke-width: 1.4; stroke-linecap: square"/>
    <g clip-path="url(#p7380948ab7)">
     <use xlink:href="#m21b1f5c5e3" x="541.887152" y="367.811082" style="fill: #d1493f; stroke: #d1493f"/>
     <use xlink:href="#m21b1f5c5e3" x="573.319818" y="367.811082" style="fill: #d1493f; stroke: #d1493f"/>
     <use xlink:href="#m21b1f5c5e3" x="615.364173" y="352.42429" style="fill: #d1493f; stroke: #d1493f"/>
     <use xlink:href="#m21b1f5c5e3" x="664.211995" y="324.728065" style="fill: #d1493f; stroke: #d1493f"/>
     <use xlink:href="#m21b1f5c5e3" x="698.318608" y="275.49033" style="fill: #d1493f; stroke: #d1493f"/>
     <use xlink:href="#m21b1f5c5e3" x="744.55835" y="213.943162" style="fill: #d1493f; stroke: #d1493f"/>
     <use xlink:href="#m21b1f5c5e3" x="785.220934" y="162.187588" style="fill: #d1493f; stroke: #d1493f"/>
     <use xlink:href="#m21b1f5c5e3" x="826.579926" y="190.614799" style="fill: #d1493f; stroke: #d1493f"/>
     <use xlink:href="#m21b1f5c5e3" x="868.211699" y="132.812803" style="fill: #d1493f; stroke: #d1493f"/>
     <use xlink:href="#m21b1f5c5e3" x="910.987966" y="74.746368" style="fill: #d1493f; stroke: #d1493f"/>
    </g>
   </g>
   <g id="line2d_66">
    <path d="M 531.551399 355.617776 
L 572.972229 339.713462 
L 611.887879 347.615918 
L 651.023387 318.099908 
L 699.622138 281.645047 
L 737.718137 233.176652 
L 777.852676 98.542221 
L 827.561347 44.688449 
L 868.471972 52.569489 
L 906.087453 44.688449 
" clip-path="url(#p7380948ab7)" style="fill: none; stroke: #d9a441; stroke-width: 1.4; stroke-linecap: square"/>
    <g clip-path="url(#p7380948ab7)">
     <use xlink:href="#m910ecb4447" x="531.551399" y="355.617776" style="fill: #d9a441; stroke: #d9a441"/>
     <use xlink:href="#m910ecb4447" x="572.972229" y="339.713462" style="fill: #d9a441; stroke: #d9a441"/>
     <use xlink:href="#m910ecb4447" x="611.887879" y="347.615918" style="fill: #d9a441; stroke: #d9a441"/>
     <use xlink:href="#m910ecb4447" x="651.023387" y="318.099908" style="fill: #d9a441; stroke: #d9a441"/>
     <use xlink:href="#m910ecb4447" x="699.622138" y="281.645047" style="fill: #d9a441; stroke: #d9a441"/>
     <use xlink:href="#m910ecb4447" x="737.718137" y="233.176652" style="fill: #d9a441; stroke: #d9a441"/>
     <use xlink:href="#m910ecb4447" x="777.852676" y="98.542221" style="fill: #d9a441; stroke: #d9a441"/>
     <use xlink:href="#m910ecb4447" x="827.561347" y="44.688449" style="fill: #d9a441; stroke: #d9a441"/>
     <use xlink:href="#m910ecb4447" x="868.471972" y="52.569489" style="fill: #d9a441; stroke: #d9a441"/>
     <use xlink:href="#m910ecb4447" x="906.087453" y="44.688449" style="fill: #d9a441; stroke: #d9a441"/>
    </g>
   </g>
   <g id="line2d_67">
    <path d="M 511.870697 367.811082 
L 930.043114 44.688449 
" clip-path="url(#p7380948ab7)" style="fill: none; stroke-dasharray: 4.44,1.92; stroke-dashoffset: 0; stroke: #aab4bd; stroke-width: 1.2"/>
   </g>
   <g id="patch_8">
    <path d="M 511.870697 367.811082 
L 511.870697 44.688449 
" style="fill: none; stroke: #aab4bd; stroke-width: 0.8; stroke-linejoin: miter; stroke-linecap: square"/>
   </g>
   <g id="patch_9">
    <path d="M 930.043114 367.811082 
L 930.043114 44.688449 
" style="fill: none; stroke: #aab4bd; stroke-width: 0.8; stroke-linejoin: miter; stroke-linecap: square"/>
   </g>
   <g id="patch_10">
    <path d="M 511.870697 367.811082 
L 930.043114 367.811082 
" style="fill: none; stroke: #aab4bd; stroke-width: 0.8; stroke-linejoin: miter; stroke-linecap: square"/>
   </g>
   <g id="patch_11">
    <path d="M 511.870697 44.688449 
L 930.043114 44.688449 
" style="fill: none; stroke: #aab4bd; stroke-width: 0.8; stroke-linejoin: miter; stroke-linecap: square"/>
   </g>
   <g id="text_37">
    <text style="font-weight: 700; font-size: 13px; font-family: 'DejaVu Sans'; text-anchor: middle" x="720.956906" y="38.688449" transform="rotate(-0 720.956906 38.688449)">Primary4 pathology</text>
   </g>
   <g id="legend_2">
    <g id="line2d_68">
     <path d="M 519.070697 55.167199 
L 527.070697 55.167199 
L 535.070697 55.167199 
" style="fill: none; stroke: #183b56; stroke-width: 1.4; stroke-linecap: square"/>
     <g>
      <use xlink:href="#m25f38674df" x="527.070697" y="55.167199" style="fill: #183b56; stroke: #183b56"/>
     </g>
    </g>
    <g id="text_38">
     <text style="font-size: 8px; font-family: 'DejaVu Sans'; text-anchor: start" x="541.470697" y="57.967199" transform="rotate(-0 541.470697 57.967199)">ASMI</text>
    </g>
    <g id="line2d_69">
     <path d="M 519.070697 66.909699 
L 527.070697 66.909699 
L 535.070697 66.909699 
" style="fill: none; stroke: #138a8a; stroke-width: 1.4; stroke-linecap: square"/>
     <g>
      <use xlink:href="#m2c2218f9d8" x="527.070697" y="66.909699" style="fill: #138a8a; stroke: #138a8a"/>
     </g>
    </g>
    <g id="text_39">
     <text style="font-size: 8px; font-family: 'DejaVu Sans'; text-anchor: start" x="541.470697" y="69.709699" transform="rotate(-0 541.470697 69.709699)">LVH</text>
    </g>
    <g id="line2d_70">
     <path d="M 519.070697 78.652199 
L 527.070697 78.652199 
L 535.070697 78.652199 
" style="fill: none; stroke: #d1493f; stroke-width: 1.4; stroke-linecap: square"/>
     <g>
      <use xlink:href="#m21b1f5c5e3" x="527.070697" y="78.652199" style="fill: #d1493f; stroke: #d1493f"/>
     </g>
    </g>
    <g id="text_40">
     <text style="font-size: 8px; font-family: 'DejaVu Sans'; text-anchor: start" x="541.470697" y="81.452199" transform="rotate(-0 541.470697 81.452199)">IMI</text>
    </g>
    <g id="line2d_71">
     <path d="M 577.284447 55.167199 
L 585.284447 55.167199 
L 593.284447 55.167199 
" style="fill: none; stroke: #d9a441; stroke-width: 1.4; stroke-linecap: square"/>
     <g>
      <use xlink:href="#m910ecb4447" x="585.284447" y="55.167199" style="fill: #d9a441; stroke: #d9a441"/>
     </g>
    </g>
    <g id="text_41">
     <text style="font-size: 8px; font-family: 'DejaVu Sans'; text-anchor: start" x="599.684447" y="57.967199" transform="rotate(-0 599.684447 57.967199)">ISC_</text>
    </g>
    <g id="line2d_72">
     <path d="M 577.284447 67.132199 
L 585.284447 67.132199 
L 593.284447 67.132199 
" style="fill: none; stroke-dasharray: 4.44,1.92; stroke-dashoffset: 0; stroke: #aab4bd; stroke-width: 1.2"/>
    </g>
    <g id="text_42">
     <text style="font-size: 8px; font-family: 'DejaVu Sans'; text-anchor: start" x="599.684447" y="69.932199" transform="rotate(-0 599.684447 69.932199)">Ideal</text>
    </g>
   </g>
  </g>
  <g id="text_43">
   <text style="font-weight: 700; font-size: 16px; font-family: 'DejaVu Sans'; text-anchor: middle; fill: #1f2933" x="472.19976" y="19.3575" transform="rotate(-0 472.19976 19.3575)">Reliability diagrams</text>
  </g>
 </g>
 <defs>
  <clipPath id="pb7815b3452">
   <rect x="42.190938" y="44.688449" width="418.172416" height="323.122634"/>
  </clipPath>
  <clipPath id="p7380948ab7">
   <rect x="511.870697" y="44.688449" width="418.172416" height="323.122634"/>
  </clipPath>
 </defs>
</svg>
